G75*
G70*
%OFA0B0*%
%FSLAX24Y24*%
%IPPOS*%
%LPD*%
%AMOC8*
5,1,8,0,0,1.08239X$1,22.5*
%
%ADD10C,0.0051*%
%ADD11C,0.0110*%
%ADD12C,0.0520*%
%ADD13C,0.0600*%
%ADD14OC8,0.0600*%
%ADD15C,0.0594*%
%ADD16C,0.0645*%
%ADD17C,0.0396*%
%ADD18C,0.0240*%
%ADD19C,0.0120*%
D10*
X000463Y008678D02*
X000459Y010371D01*
X000461Y009584D02*
X001484Y009689D01*
X001484Y009712D02*
X001485Y009460D01*
X000461Y009584D01*
X001485Y009484D01*
X001484Y009535D02*
X000461Y009584D01*
X001484Y009637D01*
X001484Y009712D02*
X000461Y009584D01*
X019980Y009623D01*
X018957Y009519D01*
X018957Y009496D02*
X019980Y009623D01*
X018957Y009724D01*
X018957Y009747D02*
X018957Y009496D01*
X018957Y009570D02*
X019980Y009623D01*
X018957Y009673D01*
X018957Y009747D02*
X019980Y009623D01*
X019979Y010411D02*
X019982Y008718D01*
X023323Y008701D01*
X022536Y008705D02*
X022633Y007681D01*
X022656Y007681D02*
X022536Y008705D01*
X022428Y007682D01*
X022405Y007682D02*
X022656Y007681D01*
X022582Y007681D02*
X022536Y008705D01*
X022480Y007682D01*
X022405Y007682D02*
X022536Y008705D01*
X022496Y000713D01*
X022604Y001736D01*
X022627Y001736D02*
X022496Y000713D01*
X022399Y001737D01*
X022376Y001737D02*
X022627Y001736D01*
X022553Y001736D02*
X022496Y000713D01*
X022450Y001737D01*
X022376Y001737D02*
X022496Y000713D01*
X023284Y000709D02*
X019943Y000726D01*
D11*
X021001Y002853D02*
X020790Y003066D01*
X020793Y003489D01*
X021005Y003699D01*
X021217Y003698D01*
X022058Y002848D01*
X022063Y003694D01*
X021853Y004118D02*
X021012Y004968D01*
X021858Y004964D01*
X022068Y004751D01*
X022066Y004328D01*
X021853Y004118D01*
X021007Y004122D01*
X020797Y004335D01*
X020799Y004758D01*
X021012Y004968D01*
X021860Y005386D02*
X021861Y005598D01*
X022073Y005597D01*
X022072Y005385D01*
X021860Y005386D01*
X021863Y006021D02*
X022076Y006231D01*
X022078Y006654D01*
X021868Y006867D01*
X021656Y006868D01*
X021444Y006657D01*
X021443Y006446D01*
X021444Y006657D02*
X021233Y006870D01*
X021022Y006871D01*
X020809Y006661D01*
X020807Y006238D01*
X021017Y006025D01*
X013094Y010268D02*
X012883Y010056D01*
X012460Y010056D01*
X012248Y010267D01*
X012248Y010478D01*
X012459Y010690D01*
X012882Y010691D01*
X013094Y010480D01*
X013094Y010268D01*
X012882Y010691D02*
X013093Y010903D01*
X013093Y011114D01*
X012881Y011325D01*
X012458Y011325D01*
X012247Y011113D01*
X012247Y010901D01*
X012459Y010690D01*
X011825Y010689D02*
X011825Y010266D01*
X011614Y010054D01*
X011191Y010053D01*
X010979Y010265D01*
X010556Y010264D02*
X010557Y010052D01*
X010345Y010052D01*
X010345Y010264D01*
X010556Y010264D01*
X009922Y010263D02*
X009921Y011109D01*
X009709Y011320D01*
X009286Y011319D01*
X009075Y011107D01*
X009075Y010896D01*
X009287Y010685D01*
X009921Y010686D01*
X009922Y010263D02*
X009711Y010051D01*
X009288Y010050D01*
X009076Y010261D01*
X008442Y010049D02*
X008440Y011318D01*
X007807Y010682D01*
X008653Y010684D01*
X010979Y010688D02*
X011401Y010900D01*
X011613Y010900D01*
X011825Y010689D01*
X010979Y010688D02*
X010978Y011322D01*
X011824Y011324D01*
D12*
X010053Y008261D02*
X010053Y007741D01*
X010053Y005261D02*
X010053Y004741D01*
D13*
X011482Y001450D03*
D14*
X012482Y001450D03*
X013482Y001450D03*
X014994Y001489D03*
X015994Y001489D03*
X016994Y001489D03*
X017994Y001489D03*
X018994Y001489D03*
X018994Y002489D03*
X017994Y002489D03*
X016994Y002489D03*
X015994Y002489D03*
X014994Y002489D03*
X013482Y002450D03*
X012482Y002450D03*
X011482Y002450D03*
D15*
X017422Y005899D02*
X018015Y005899D01*
X018015Y006899D02*
X017422Y006899D01*
X017422Y007899D02*
X018015Y007899D01*
D16*
X005785Y002186D02*
X005140Y002186D01*
X005140Y003186D02*
X005785Y003186D01*
D17*
X009352Y006001D03*
X007522Y006670D03*
X004943Y007930D03*
X004825Y006198D03*
X013053Y008285D03*
X013368Y006749D03*
X013486Y005962D03*
X013171Y004663D03*
D18*
X010770Y005332D02*
X010770Y007891D01*
X011163Y008285D01*
X013053Y008285D01*
X010053Y008001D02*
X009541Y008001D01*
X009313Y007773D01*
X009313Y006670D01*
X009136Y006493D01*
X009352Y006277D01*
X009352Y006001D01*
X009116Y006474D02*
X007640Y006474D01*
X007522Y006670D01*
X009116Y006474D02*
X009136Y006493D01*
X010439Y005001D02*
X010770Y005332D01*
X010439Y005001D02*
X010053Y005001D01*
X005628Y005001D01*
X004825Y005804D01*
X004825Y006198D01*
X004234Y006513D02*
X004234Y005332D01*
X005533Y004033D01*
X008762Y004033D01*
X010494Y002300D01*
X010494Y001356D01*
X010966Y000883D01*
X019352Y000883D01*
X019667Y001198D01*
X019667Y001816D01*
X018994Y002489D01*
X004943Y007222D02*
X004234Y006513D01*
X004943Y007222D02*
X004943Y007930D01*
D19*
X012974Y004466D02*
X013171Y004663D01*
X012974Y004466D02*
X012974Y001789D01*
X012636Y001450D01*
X012482Y001450D01*
X015494Y001950D02*
X015994Y001489D01*
X015494Y001950D02*
X015494Y004190D01*
X014982Y004741D01*
X013959Y004741D01*
X013486Y005214D01*
X013486Y005962D01*
X013368Y006749D02*
X017569Y006749D01*
X017718Y006899D01*
M02*
