G75*
G70*
%OFA0B0*%
%FSLAX24Y24*%
%IPPOS*%
%LPD*%
%AMOC8*
5,1,8,0,0,1.08239X$1,22.5*
%
%ADD10R,0.0671X0.0356*%
%ADD11R,0.0316X0.0474*%
%ADD12R,0.0395X0.0474*%
%ADD13C,0.0434*%
%ADD14R,0.0631X0.0474*%
%ADD15R,0.0297X0.0552*%
%ADD16R,0.0340X0.0880*%
%ADD17R,0.0474X0.0265*%
%ADD18R,0.0592X0.0710*%
%ADD19R,0.0671X0.0592*%
%ADD20C,0.0600*%
%ADD21C,0.0680*%
%ADD22OC8,0.0680*%
%ADD23C,0.0674*%
%ADD24R,0.0592X0.0671*%
%ADD25C,0.0725*%
%ADD26C,0.0476*%
D10*
X002022Y006001D03*
X002022Y006592D03*
X002022Y007773D03*
D11*
X000939Y008324D03*
X000939Y005450D03*
D12*
X001766Y005450D03*
X001766Y008324D03*
D13*
X001333Y007478D03*
X001333Y006296D03*
D14*
X003329Y007643D03*
X004195Y008017D03*
X004195Y007269D03*
D15*
X005671Y006119D03*
X006419Y006119D03*
X007522Y006119D03*
X008270Y006119D03*
X008270Y005096D03*
X007896Y005096D03*
X007522Y005096D03*
X006419Y005096D03*
X006045Y005096D03*
X005671Y005096D03*
D16*
X014051Y005035D03*
X014551Y005035D03*
X015051Y005035D03*
X015551Y005035D03*
X015551Y007455D03*
X015051Y007455D03*
X014551Y007455D03*
X014051Y007455D03*
D17*
X012620Y007359D03*
X012620Y007615D03*
X012620Y007871D03*
X011911Y007871D03*
X011911Y007615D03*
X011911Y007359D03*
D18*
X011900Y003922D03*
X012648Y003922D03*
D19*
X008596Y007202D03*
X008596Y007950D03*
X007140Y007950D03*
X007140Y007202D03*
X005683Y007194D03*
X005683Y007942D03*
D20*
X010053Y007741D02*
X010053Y008261D01*
X010053Y005261D02*
X010053Y004741D01*
D21*
X011482Y001450D03*
D22*
X012482Y001450D03*
X013482Y001450D03*
X014994Y001489D03*
X015994Y001489D03*
X016994Y001489D03*
X017994Y001489D03*
X018994Y001489D03*
X018994Y002489D03*
X017994Y002489D03*
X016994Y002489D03*
X015994Y002489D03*
X014994Y002489D03*
X013482Y002450D03*
X012482Y002450D03*
X011482Y002450D03*
D23*
X017422Y005899D02*
X018015Y005899D01*
X018015Y006899D02*
X017422Y006899D01*
X017422Y007899D02*
X018015Y007899D01*
D24*
X012663Y006344D03*
X011915Y006344D03*
X011903Y005123D03*
X012651Y005123D03*
D25*
X005785Y002186D02*
X005140Y002186D01*
X005140Y003186D02*
X005785Y003186D01*
D26*
X009352Y006001D03*
X007522Y006670D03*
X004943Y007930D03*
X004825Y006198D03*
X013053Y008285D03*
X013368Y006749D03*
X013486Y005962D03*
X013171Y004663D03*
M02*
